# xmcd CD database file
#
# Track frame offsets:
#	187
#	19162
#	33712
#	54112
#	80212
#	100837
#	112237
#	141487
#	157312
#	175012
#	184312
#	203812
#	212887
#
# Disc length: 3296 seconds
#
# Revision: 0
# Processed by: cddbd v1.5.2PL0 Copyright (c) Steve Scherf et al.
# Submitted via: CDex 1.51
#
DISCID=c50cde0d
DTITLE=Banegas - Sinfonia Virtual Focus Vol. 2
DYEAR=1997
DGENRE=New Age
TTITLE0=Al calor de la hoguera
TTITLE1=La maranã
TTITLE2=Cuando aerde la piel
TTITLE3=Tupac Amaru
TTITLE4=El vale superviviente
TTITLE5=concierto em llamas
TTITLE6=concierto em llamas 2
TTITLE7=Cenizas sobre arena
TTITLE8=Krakatoa
TTITLE9=Gracias poe el fuego
TTITLE10=viento solar
TTITLE11=piromano
TTITLE12=Motin en el tercer mundo 
EXTD=YEAR: 1997
EXTT0=
EXTT1=
EXTT2=
EXTT3=
EXTT4=
EXTT5=
EXTT6=
EXTT7=
EXTT8=
EXTT9=
EXTT10=
EXTT11=
EXTT12=
PLAYORDER=
